<svg xmlns="http://www.w3.org/2000/svg" xmlns:xlink="http://www.w3.org/1999/xlink" width="1920" zoomAndPan="magnify" viewBox="0 0 1440 809.999993" height="1080" preserveAspectRatio="xMidYMid meet" version="1.0"><defs><g/></defs><g fill="#ffffff" fill-opacity="1"><g transform="translate(593.135904, 478.499996)"><g><path d="M 86.933594 3.230469 C 121.382812 3.230469 149.105469 -17.496094 157.988281 -49.523438 L 134.839844 -49.523438 C 125.960938 -30.144531 108.195312 -18.839844 86.933594 -18.839844 C 57.328125 -18.839844 34.71875 -42.253906 34.71875 -72.667969 C 34.71875 -102.8125 57.058594 -126.230469 86.933594 -126.230469 C 108.464844 -126.230469 126.5 -114.925781 134.839844 -96.085938 L 157.71875 -96.085938 C 148.835938 -127.84375 121.652344 -148.300781 86.933594 -148.300781 C 43.871094 -148.300781 11.304688 -116 11.304688 -72.667969 C 11.304688 -29.335938 43.871094 3.230469 86.933594 3.230469 Z M 86.933594 3.230469 "/></g></g></g><g fill="#ffffff" fill-opacity="1"><g transform="translate(760.005503, 478.499996)"><g><path d="M 146.953125 -145.339844 L 143.992188 -123 C 130.535156 -138.878906 110.347656 -148.300781 86.664062 -148.300781 C 43.601562 -148.300781 11.304688 -116 11.304688 -72.398438 C 11.304688 -29.335938 43.601562 3.230469 86.664062 3.230469 C 110.347656 3.230469 130.265625 -6.191406 143.722656 -21.800781 L 146.144531 0 L 164.984375 0 L 164.984375 -145.339844 Z M 88.28125 -18.839844 C 57.597656 -18.839844 34.71875 -41.988281 34.71875 -72.667969 C 34.71875 -103.082031 57.597656 -126.230469 88.28125 -126.230469 C 119.230469 -126.230469 141.570312 -103.351562 141.570312 -72.667969 C 141.570312 -41.71875 119.230469 -18.839844 88.28125 -18.839844 Z M 88.28125 -18.839844 "/></g></g></g><g fill="#ffffff" fill-opacity="1"><g transform="translate(948.137564, 478.499996)"><g><path d="M 89.355469 -145.875 C 68.363281 -145.875 53.289062 -138.070312 42.792969 -123 L 39.296875 -145.339844 L 22.878906 -145.339844 L 22.878906 0 L 45.753906 0 L 45.753906 -78.859375 C 45.753906 -107.121094 60.828125 -124.34375 87.472656 -124.34375 L 102.273438 -124.34375 L 102.273438 -145.875 Z M 89.355469 -145.875 "/></g></g></g><g fill="#ffffff" fill-opacity="1"><g transform="translate(1052.02739, 478.499996)"><g><path d="M 83.164062 -20.992188 C 63.25 -20.992188 52.484375 -31.757812 52.484375 -51.40625 L 52.484375 -124.613281 L 98.238281 -124.613281 L 98.238281 -145.339844 L 52.484375 -145.339844 L 52.484375 -176.019531 L 48.984375 -176.019531 L 4.039062 -128.652344 L 4.039062 -124.613281 L 29.605469 -124.613281 L 29.605469 -50.597656 C 29.605469 -19.109375 48.984375 0 80.207031 0 L 99.046875 0 L 99.046875 -20.992188 Z M 83.164062 -20.992188 "/></g></g></g><g fill="#ffffff" fill-opacity="1"><g transform="translate(1158.608637, 478.499996)"><g><path d="M 158.796875 -71.863281 C 158.796875 -114.386719 129.726562 -148.300781 85.589844 -148.300781 C 43.332031 -148.300781 11.574219 -115.730469 11.574219 -72.667969 C 11.574219 -29.335938 43.332031 3.230469 85.589844 3.230469 C 117.078125 3.230469 142.648438 -14.265625 155.027344 -44.140625 L 130.804688 -44.140625 C 121.921875 -28.53125 105.773438 -19.109375 85.589844 -19.109375 C 58.136719 -19.109375 37.949219 -36.871094 34.449219 -63.789062 L 158.257812 -63.789062 C 158.527344 -66.480469 158.796875 -69.171875 158.796875 -71.863281 Z M 85.589844 -126.765625 C 111.425781 -126.765625 131.074219 -110.617188 135.917969 -84.78125 L 34.988281 -84.78125 C 39.5625 -110.082031 59.210938 -126.765625 85.589844 -126.765625 Z M 85.589844 -126.765625 "/></g></g></g><g fill="#ffffff" fill-opacity="1"><g transform="translate(1328.707976, 478.499996)"><g><path d="M 89.355469 -145.875 C 68.363281 -145.875 53.289062 -138.070312 42.792969 -123 L 39.296875 -145.339844 L 22.878906 -145.339844 L 22.878906 0 L 45.753906 0 L 45.753906 -78.859375 C 45.753906 -107.121094 60.828125 -124.34375 87.472656 -124.34375 L 102.273438 -124.34375 L 102.273438 -145.875 Z M 89.355469 -145.875 "/></g></g></g><path fill="#ffffff" d="M 149.042969 405.847656 C 149.042969 530.972656 397.082031 428.613281 428.183594 484.871094 C 464.59375 550.730469 315.925781 633.046875 221.863281 633.046875 C 101.292969 633.046875 3.40625 531.242188 3.40625 405.847656 C 3.40625 280.449219 101.292969 178.644531 221.863281 178.644531 C 319.542969 178.644531 464.59375 270.839844 428.183594 336.699219 C 398.566406 390.269531 149.042969 280.71875 149.042969 405.847656 Z M 149.042969 405.847656 " fill-opacity="1" fill-rule="evenodd"/></svg>